<svg id="Capa_1" data-name="Capa 1" xmlns="http://www.w3.org/2000/svg" viewBox="0 0 458.42 511"><defs><style>.cls-1{fill:#be471a;}.cls-2{fill:#a73f18;}.cls-3{fill:#c94a1b;}.cls-4{fill:#953a16;}.cls-15,.cls-5{fill:#131428;}.cls-5{opacity:0.2;}.cls-16,.cls-17,.cls-6{fill:#e5e1dd;}.cls-7{fill:#a5a39f;}.cls-8{fill:#b6b4ab;}.cls-9{fill:#58595c;}.cls-10,.cls-12{fill:none;stroke-linecap:round;stroke-miterlimit:10;}.cls-10{stroke:#58595c;stroke-width:7px;}.cls-11{fill:#3a4081;}.cls-12{stroke:#e5e1dd;stroke-width:25px;}.cls-13{fill:#68696c;}.cls-14{fill:#d4cfbd;}.cls-16{opacity:0.05;}.cls-17{opacity:0.1;}</style></defs><title>winner</title><path class="cls-1" d="M570.88,702h-442c0-122,99-221,221-221a220.84,220.84,0,0,1,221,221Z" transform="translate(-112.46 -191)"/><path class="cls-2" d="M372.29,482.13v.52a67.14,67.14,0,0,1-67.15,67.14,65.93,65.93,0,0,0-57.89,34.39l-4,7.4a29.93,29.93,0,0,0,16.51,42.62l23.1,8a30,30,0,0,1,12.67,8.5L340.79,702H128.88A221.09,221.09,0,0,1,372.29,482.13Z" transform="translate(-112.46 -191)"/><path class="cls-3" d="M332.62,606.42,351.13,585a59,59,0,0,1,37-19.91l72.41-9.44a11,11,0,0,1,8.91,2.84l44.71,41.36A11,11,0,0,1,517.7,608v31.61a29.43,29.43,0,0,1-25.48,29.17l-18.34,2.5a13.5,13.5,0,0,0-10.66,18.52l5,12.25H369.07l.61-44.35a11,11,0,0,0-3.9-8.56L333.83,622A11,11,0,0,1,332.62,606.42Z" transform="translate(-112.46 -191)"/><path class="cls-2" d="M570.88,702H538.51l-6-21.23a34.17,34.17,0,0,1,1-21.52l18.18-47.59A220.21,220.21,0,0,1,570.88,702Z" transform="translate(-112.46 -191)"/><path class="cls-1" d="M382.36,590.11l-10.62,15.6a5.35,5.35,0,0,0,.9,7l16.83,14.7a5.34,5.34,0,0,0,3.53,1.33h33.75a5.36,5.36,0,0,0,4.95-3.3l14.15-33.89a5.36,5.36,0,0,0-5.3-7.41l-54.12,3.59A5.37,5.37,0,0,0,382.36,590.11Z" transform="translate(-112.46 -191)"/><path class="cls-1" d="M433.45,644.75l2.85,11.74a6.2,6.2,0,0,0,5.44,4.7l13.57,1.26a6.18,6.18,0,0,0,6.75-6.16V637.22a6.18,6.18,0,0,0-8.32-5.8l-16.43,6.07A6.18,6.18,0,0,0,433.45,644.75Z" transform="translate(-112.46 -191)"/><path class="cls-4" d="M156,702l14.9-26.6a16.91,16.91,0,0,1,12.68-8.53L222.56,662a17,17,0,0,1,11.61,2.8l19.89,13.51a51.71,51.71,0,0,0,30.42,8.93l7.55-.2a20.36,20.36,0,0,1,15.51,6.57l7.7,8.37Z" transform="translate(-112.46 -191)"/><path class="cls-4" d="M199.44,629.23l6.35,14.31a5.4,5.4,0,0,0,4.94,3.21h15.41a5.41,5.41,0,0,0,5.32-4.41l3.4-18.14a5.42,5.42,0,0,0-3.07-5.92l-12.25-5.59a5.38,5.38,0,0,0-5.44.55l-12.91,9.43A5.42,5.42,0,0,0,199.44,629.23Z" transform="translate(-112.46 -191)"/><path class="cls-3" d="M388.89,543.58l15.49,2.24a5.38,5.38,0,0,0,5.35-2.48l8.21-13a5.42,5.42,0,0,0-.91-6.85l-13.54-12.54a5.41,5.41,0,0,0-6.64-.55l-11.27,7.39a5.42,5.42,0,0,0-2.42,4.9l1.11,16A5.43,5.43,0,0,0,388.89,543.58Z" transform="translate(-112.46 -191)"/><path class="cls-4" d="M178.46,638.25h6.33a5.25,5.25,0,0,1,5,6.74l-2.26,7.57a5.22,5.22,0,0,1-6.85,3.41l-6.41-2.39a5.24,5.24,0,0,1-3-7.06l2.33-5.18A5.24,5.24,0,0,1,178.46,638.25Z" transform="translate(-112.46 -191)"/><path class="cls-2" d="M269.87,593.35h0a9.09,9.09,0,0,0,9.09,9.09h3.09a9.08,9.08,0,0,1,8.88,7.15l.66,3a9.09,9.09,0,0,0,8.88,7.14h5.68a9.09,9.09,0,0,0,9.09-9.08v-17.4a9.08,9.08,0,0,0-9.12-9.09l-27.19.08A9.09,9.09,0,0,0,269.87,593.35Z" transform="translate(-112.46 -191)"/><path class="cls-2" d="M511.06,699.15V702H493v-2.85a6.17,6.17,0,0,1,6.17-6.17h5.69A6.18,6.18,0,0,1,511.06,699.15Z" transform="translate(-112.46 -191)"/><path class="cls-1" d="M303.65,517.72l-22.32,14.81a22.28,22.28,0,0,1-19.3,2.61,34.44,34.44,0,0,0-37.68,11.21,28.84,28.84,0,0,1-8.52,7.2,29.24,29.24,0,0,1-10.6,3.48l-24.77,3.05A220.89,220.89,0,0,1,297.31,487.3l9.11,21.12A7.57,7.57,0,0,1,303.65,517.72Z" transform="translate(-112.46 -191)"/><ellipse class="cls-5" cx="272.79" cy="366.33" rx="104.84" ry="18.2"/><ellipse class="cls-5" cx="138.69" cy="366.33" rx="45.26" ry="14.7"/><path class="cls-6" d="M237.61,103.34h69.66a19,19,0,0,1,19,19V230.95a0,0,0,0,1,0,0H218.57a0,0,0,0,1,0,0V122.37A19,19,0,0,1,237.61,103.34Z"/><rect class="cls-7" x="270.85" y="103.34" width="3.16" height="116.74"/><rect class="cls-8" x="218.57" y="220.08" width="107.72" height="10.86"/><rect class="cls-8" x="245.74" y="160.52" width="53.39" height="33.78" rx="5.29" ry="5.29"/><path class="cls-9" d="M401.52,378h0a3.15,3.15,0,0,1-3.14-3.14V362a3.15,3.15,0,0,1,3.14-3.14h0a3.14,3.14,0,0,1,3.14,3.14v12.88A3.14,3.14,0,0,1,401.52,378Z" transform="translate(-112.46 -191)"/><path class="cls-9" d="M390.44,378h0a3.14,3.14,0,0,1-3.14-3.14V362a3.14,3.14,0,0,1,3.14-3.14h0a3.14,3.14,0,0,1,3.13,3.14v12.88A3.14,3.14,0,0,1,390.44,378Z" transform="translate(-112.46 -191)"/><path class="cls-9" d="M379.35,378h0a3.15,3.15,0,0,1-3.14-3.14V362a3.15,3.15,0,0,1,3.14-3.14h0a3.15,3.15,0,0,1,3.14,3.14v12.88A3.15,3.15,0,0,1,379.35,378Z" transform="translate(-112.46 -191)"/><path class="cls-9" d="M368.26,378h0a3.14,3.14,0,0,1-3.13-3.14V362a3.14,3.14,0,0,1,3.13-3.14h0A3.14,3.14,0,0,1,371.4,362v12.88A3.14,3.14,0,0,1,368.26,378Z" transform="translate(-112.46 -191)"/><path class="cls-10" d="M368.26,385.3h0a15.7,15.7,0,0,1-15.7,15.7h-21.8" transform="translate(-112.46 -191)"/><path class="cls-10" d="M401.25,385.3h0A15.7,15.7,0,0,0,417,401h21.79" transform="translate(-112.46 -191)"/><path class="cls-11" d="M431.91,347.24A8.94,8.94,0,1,1,423,338.3,8.94,8.94,0,0,1,431.91,347.24Z" transform="translate(-112.46 -191)"/><path class="cls-12" d="M431.91,314.91h0a54.61,54.61,0,0,1,27.27,47.26v35.28" transform="translate(-112.46 -191)"/><path class="cls-13" d="M469.09,423.25V406.18a9.91,9.91,0,0,0-9.91-9.91h0a9.91,9.91,0,0,0-9.92,9.91v17.07a2.65,2.65,0,0,0,2.65,2.65h14.53A2.65,2.65,0,0,0,469.09,423.25Z" transform="translate(-112.46 -191)"/><path class="cls-9" d="M450.5,425.9h0a5,5,0,0,1-5-5v-9.81a5,5,0,0,1,5-4.95h0a5,5,0,0,1,4.95,4.95v9.81A5,5,0,0,1,450.5,425.9Z" transform="translate(-112.46 -191)"/><path class="cls-12" d="M344.49,311.91l-24,35.2a38.46,38.46,0,0,1-31.76,16.77H266" transform="translate(-112.46 -191)"/><ellipse class="cls-14" cx="272.43" cy="87.87" rx="59.27" ry="62.07"/><circle class="cls-6" cx="272.43" cy="67.37" r="67.37"/><path class="cls-15" d="M444.16,258.37s0,59.66-59.27,59.66c-54.5,0-59.26-59.66-59.26-59.66s0-40.9,59.26-40.9S444.16,258.37,444.16,258.37Z" transform="translate(-112.46 -191)"/><ellipse class="cls-6" cx="330.86" cy="67.37" rx="9.04" ry="12.05"/><path class="cls-8" d="M447.84,258.37c0,3.33-2,6-4.52,6s-4.52-2.69-4.52-6,2-6,4.52-6S447.84,255,447.84,258.37Z" transform="translate(-112.46 -191)"/><ellipse class="cls-6" cx="214.1" cy="67.37" rx="9.04" ry="12.05"/><path class="cls-8" d="M331.08,258.37c0,3.33-2,6-4.52,6s-4.52-2.69-4.52-6,2-6,4.52-6S331.08,255,331.08,258.37Z" transform="translate(-112.46 -191)"/><path class="cls-16" d="M384.89,227.86c-47,0-47,32.45-47,32.45a61.58,61.58,0,0,0,1.93,10c10.59,10.46,25.74,18.26,47.4,18.26,18.05,0,31.54-4.58,41.64-11.43a58.92,58.92,0,0,0,3.07-16.85S431.91,227.86,384.89,227.86Z" transform="translate(-112.46 -191)"/><path class="cls-17" d="M371.53,244.79a7.56,7.56,0,1,1-7.56-7.56A7.55,7.55,0,0,1,371.53,244.79Z" transform="translate(-112.46 -191)"/><circle class="cls-17" cx="237.99" cy="65.63" r="5.96"/><path class="cls-6" d="M331,441c0,10.53,24.12,19.06,53.86,19.06s53.86-8.53,53.86-19.06V422H331Z" transform="translate(-112.46 -191)"/><path class="cls-8" d="M212.12,328.93h41.35a0,0,0,0,1,0,0v28.45a0,0,0,0,1,0,0H198.15a0,0,0,0,1,0,0V342.91A14,14,0,0,1,212.12,328.93Z"/><path class="cls-6" d="M218.57,230.95h39.64a0,0,0,0,1,0,0V322.5a14.73,14.73,0,0,1-14.73,14.73H222.27a3.69,3.69,0,0,1-3.69-3.69V230.95A0,0,0,0,1,218.57,230.95Z"/><circle class="cls-7" cx="361.34" cy="521.96" r="10.87" transform="translate(-375.7 217.38) rotate(-45)"/><path class="cls-6" d="M367.62,522a6.28,6.28,0,1,1-6.28-6.28A6.28,6.28,0,0,1,367.62,522Z" transform="translate(-112.46 -191)"/><rect class="cls-7" x="198.15" y="350.27" width="55.32" height="7.11"/><rect class="cls-7" x="218.3" y="290.21" width="39.91" height="2.37"/><rect class="cls-8" x="210.08" y="275.2" width="16.99" height="32.4" rx="4.56" ry="4.56"/><path class="cls-8" d="M403.86,519.93h55.32a0,0,0,0,1,0,0v28.45a0,0,0,0,1,0,0H417.83a14,14,0,0,1-14-14V519.93A0,0,0,0,1,403.86,519.93Z" transform="translate(750.57 877.32) rotate(180)"/><path class="cls-6" d="M402.81,421.95H424a14.73,14.73,0,0,1,14.73,14.73v91.56a0,0,0,0,1,0,0H399.12a0,0,0,0,1,0,0V425.64A3.69,3.69,0,0,1,402.81,421.95Z" transform="translate(725.41 759.18) rotate(180)"/><circle class="cls-7" cx="408.45" cy="521.96" r="10.87" transform="translate(-342.54 508.57) rotate(-67.5)"/><circle class="cls-6" cx="295.99" cy="330.96" r="6.28"/><rect class="cls-7" x="291.4" y="350.27" width="55.32" height="7.11"/><rect class="cls-7" x="399.12" y="481.21" width="39.91" height="2.37" transform="translate(725.68 773.8) rotate(180)"/><rect class="cls-8" x="430.26" y="466.2" width="16.99" height="32.4" rx="4.56" ry="4.56" transform="translate(765.04 773.8) rotate(180)"/><path class="cls-13" d="M239,373.8h17.07a9.91,9.91,0,0,0,9.91-9.92h0a9.91,9.91,0,0,0-9.91-9.91H239a2.65,2.65,0,0,0-2.65,2.65v14.53A2.65,2.65,0,0,0,239,373.8Z" transform="translate(-112.46 -191)"/><rect class="cls-15" x="129.83" y="46.23" width="7.9" height="311.15"/><path class="cls-11" d="M242.29,334.23c-43.27-16.71-86.55,16.71-129.83,0V250.67c43.28,16.71,86.56-16.71,129.83,0Z" transform="translate(-112.46 -191)"/><path class="cls-9" d="M238.91,369h0a2.59,2.59,0,0,1-2.58-2.58V363.1a9.11,9.11,0,0,1,9.11-9.11h10a3,3,0,0,1,3,3h0a3,3,0,0,1-3,3h-10a3.19,3.19,0,0,0-3.18,3.19v2.55A3.35,3.35,0,0,1,238.91,369Z" transform="translate(-112.46 -191)"/></svg>