<svg id="Capa_1" data-name="Capa 1" xmlns="http://www.w3.org/2000/svg" viewBox="0 0 512 352"><defs><style>.cls-1{fill:#b6b8be;}.cls-2{fill:#fff;}.cls-3{fill:#e3e6e9;}.cls-4{fill:#d5d9de;}.cls-5{fill:#5c546a;}.cls-6{fill:#888693;}</style></defs><title>white</title><path class="cls-1" d="M102,141.74l-4.5,31.51A32,32,0,0,1,112,200H392q4.85,0,9.57.16a7.36,7.36,0,0,0-1.25-.15c-72.39-2.93-134.47-39.58-189.25-72H117.88A16,16,0,0,0,102,141.74Z" transform="translate(0 -80)"/><path class="cls-1" d="M64,80a8,8,0,0,0-5.78,2.47A8,8,0,0,1,64,80Z" transform="translate(0 -80)"/><path class="cls-2" d="M97.54,173.25l4.5-31.51A16,16,0,0,1,117.88,128h93.19l-.35-.2C167.39,102.15,130,80,96,80H64a8,8,0,0,0-7.93,6.94L45.26,168H80A31.87,31.87,0,0,1,97.54,173.25Z" transform="translate(0 -80)"/><path class="cls-1" d="M64,432h0a8,8,0,0,1-5.78-2.47A8,8,0,0,0,64,432Z" transform="translate(0 -80)"/><path class="cls-1" d="M112,312a32,32,0,0,1-14.46,26.75l4.5,31.51A16,16,0,0,0,117.88,384h93.19c54.78-32.43,116.86-69.08,189.25-72a7.36,7.36,0,0,0,1.25-.15q-4.72.17-9.57.16Z" transform="translate(0 -80)"/><path class="cls-2" d="M210.72,384.2l.35-.2H117.88A16,16,0,0,1,102,370.26l-4.5-31.51A31.87,31.87,0,0,1,80,344H45.26l10.81,81.05A8,8,0,0,0,64,432H96C130,432,167.39,409.85,210.72,384.2Z" transform="translate(0 -80)"/><path class="cls-3" d="M112,200a31.8,31.8,0,0,1-4.3,16H405a7.17,7.17,0,0,1,5.27,2.47C419,228,424,241.72,424,256s-5,28-13.77,37.53A7.17,7.17,0,0,1,405,296H107.7a31.8,31.8,0,0,1,4.3,16H392q4.85,0,9.57-.16C465.16,309.71,512,286.42,512,256s-46.84-53.71-110.43-55.84Q396.85,200,392,200Z" transform="translate(0 -80)"/><path class="cls-4" d="M384,288V224c0-5.53,3.58-8,8-8H107.7A32.16,32.16,0,0,1,88,231v17h96a8,8,0,0,1,0,16H88v17a32.16,32.16,0,0,1,19.7,15H392C387.58,296,384,293.53,384,288Z" transform="translate(0 -80)"/><path class="cls-5" d="M88,281V264H32v16H80A32,32,0,0,1,88,281Z" transform="translate(0 -80)"/><path class="cls-5" d="M88,231a32,32,0,0,1-8,1H32v16H88Z" transform="translate(0 -80)"/><path class="cls-6" d="M88,231a32.16,32.16,0,0,0,19.7-15A32,32,0,0,0,80,168H32v64H80A32,32,0,0,0,88,231Z" transform="translate(0 -80)"/><path class="cls-2" d="M184,264a8,8,0,0,0,0-16H8a8,8,0,0,0,0,16H184Z" transform="translate(0 -80)"/><path class="cls-5" d="M384,224v64c0,5.53,3.58,8,8,8h13a7.17,7.17,0,0,0,5.27-2.47C419,284,424,270.28,424,256s-5-28-13.77-37.53A7.17,7.17,0,0,0,405,216H392C387.58,216,384,218.47,384,224Z" transform="translate(0 -80)"/><path class="cls-5" d="M32,208V168H8a8,8,0,0,0-8,8v48a8,8,0,0,0,8,8H32V208Z" transform="translate(0 -80)"/><path class="cls-6" d="M80,344a32,32,0,1,0,0-64H32v64H80Z" transform="translate(0 -80)"/><path class="cls-5" d="M32,288v-8H8a8,8,0,0,0-8,8v48a8,8,0,0,0,8,8H32V288Z" transform="translate(0 -80)"/></svg>